<svg width="1349" height="667" xmlns="http://www.w3.org/2000/svg"><g><path d="M-115.04814852029085,-29.03746602125466L-127.22170284949243,847.9845260549337L-76.3165070861578,517.7435587160289Z" fill="#a7e2f8" stroke="#a7e2f8"/><path d="M-115.04814852029085,-29.03746602125466L-76.3165070861578,517.7435587160289L-49.67035221867263,275.2092380449176Z" fill="#e2ffea" stroke="#e2ffea"/><path d="M-115.04814852029085,-29.03746602125466L-49.67035221867263,275.2092380449176L-69.2761043831706,40.870845559984446Z" fill="#fefffb" stroke="#fefffb"/><path d="M-115.04814852029085,-29.03746602125466L-69.2761043831706,40.870845559984446L102.79416566714644,-107.61815180070698Z" fill="#fdfef9" stroke="#fdfef9"/><path d="M102.79416566714644,-107.61815180070698L-69.2761043831706,40.870845559984446L133.6883212812245,111.13951865583658Z" fill="#f7fcf4" stroke="#f7fcf4"/><path d="M102.79416566714644,-107.61815180070698L133.6883212812245,111.13951865583658L199.25527285784483,-56.138862781226635Z" fill="#f1faef" stroke="#f1faef"/><path d="M102.79416566714644,-107.61815180070698L199.25527285784483,-56.138862781226635L407.75818451307714,-134.34715999290347Z" fill="#ecf8e9" stroke="#ecf8e9"/><path d="M199.25527285784483,-56.138862781226635L133.6883212812245,111.13951865583658L280.29908501543105,101.71322084963322Z" fill="#eef8eb" stroke="#eef8eb"/><path d="M199.25527285784483,-56.138862781226635L280.29908501543105,101.71322084963322L407.75818451307714,-134.34715999290347Z" fill="#e8f6e5" stroke="#e8f6e5"/><path d="M407.75818451307714,-134.34715999290347L280.29908501543105,101.71322084963322L393.7276911456138,112.17537517659366Z" fill="#e3f4e1" stroke="#e3f4e1"/><path d="M407.75818451307714,-134.34715999290347L393.7276911456138,112.17537517659366L483.4735513664782,-57.420945055782795Z" fill="#dcf1de" stroke="#dcf1de"/><path d="M407.75818451307714,-134.34715999290347L483.4735513664782,-57.420945055782795L633.6760056763887,-124.72658204846084Z" fill="#d3eeda" stroke="#d3eeda"/><path d="M483.4735513664782,-57.420945055782795L393.7276911456138,112.17537517659366L535.1810983009636,119.10768561065197Z" fill="#d7f0dc" stroke="#d7f0dc"/><path d="M483.4735513664782,-57.420945055782795L535.1810983009636,119.10768561065197L633.5170118976384,40.36166355013847Z" fill="#ceecdc" stroke="#ceecdc"/><path d="M483.4735513664782,-57.420945055782795L633.5170118976384,40.36166355013847L633.6760056763887,-124.72658204846084Z" fill="#c9eade" stroke="#c9eade"/><path d="M633.6760056763887,-124.72658204846084L633.5170118976384,40.36166355013847L818.2079752720892,-93.80240653641522Z" fill="#bae4e3" stroke="#bae4e3"/><path d="M633.6760056763887,-124.72658204846084L818.2079752720892,-93.80240653641522L1134.720434434712,-68.71097247116268Z" fill="#a5d7e8" stroke="#a5d7e8"/><path d="M633.6760056763887,-124.72658204846084L1134.720434434712,-68.71097247116268L1323.9684459473938,-65.60716149397194Z" fill="#93c3dd" stroke="#93c3dd"/><path d="M818.2079752720892,-93.80240653641522L633.5170118976384,40.36166355013847L812.8320224862546,91.49146609939635Z" fill="#b3e0e5" stroke="#b3e0e5"/><path d="M818.2079752720892,-93.80240653641522L812.8320224862546,91.49146609939635L1011.486864387989,31.333109820261598Z" fill="#a3d5e7" stroke="#a3d5e7"/><path d="M818.2079752720892,-93.80240653641522L1011.486864387989,31.333109820261598L1029.7343044169247,-31.689072316512465Z" fill="#9bcde2" stroke="#9bcde2"/><path d="M818.2079752720892,-93.80240653641522L1029.7343044169247,-31.689072316512465L1134.720434434712,-68.71097247116268Z" fill="#97c8e0" stroke="#97c8e0"/><path d="M1029.7343044169247,-31.689072316512465L1011.486864387989,31.333109820261598L1095.6773581914604,21.62857278250158Z" fill="#92c1dc" stroke="#92c1dc"/><path d="M1029.7343044169247,-31.689072316512465L1095.6773581914604,21.62857278250158L1134.720434434712,-68.71097247116268Z" fill="#8dbad8" stroke="#8dbad8"/><path d="M1134.720434434712,-68.71097247116268L1095.6773581914604,21.62857278250158L1333.8156986609101,16.818643268197775Z" fill="#83abce" stroke="#83abce"/><path d="M1134.720434434712,-68.71097247116268L1333.8156986609101,16.818643268197775L1323.9684459473938,-65.60716149397194Z" fill="#809fc7" stroke="#809fc7"/><path d="M1323.9684459473938,-65.60716149397194L1333.8156986609101,16.818643268197775L1403.3544861339033,-46.42420068383217Z" fill="#8091be" stroke="#8091be"/><path d="M1403.3544861339033,-46.42420068383217L1333.8156986609101,16.818643268197775L1420.507553173229,119.35055552981794Z" fill="#808cbb" stroke="#808cbb"/><path d="M1403.3544861339033,-46.42420068383217L1420.507553173229,119.35055552981794L1469.903368614614,423.1357325334102Z" fill="#7a85ad" stroke="#7a85ad"/><path d="M-69.2761043831706,40.870845559984446L-49.67035221867263,275.2092380449176L120.05127377808094,189.70875176601112Z" fill="#f5feee" stroke="#f5feee"/><path d="M-69.2761043831706,40.870845559984446L120.05127377808094,189.70875176601112L133.6883212812245,111.13951865583658Z" fill="#f5fcf0" stroke="#f5fcf0"/><path d="M133.6883212812245,111.13951865583658L120.05127377808094,189.70875176601112L243.68449416942894,205.79631065949798Z" fill="#e9f9e3" stroke="#e9f9e3"/><path d="M133.6883212812245,111.13951865583658L243.68449416942894,205.79631065949798L280.29908501543105,101.71322084963322Z" fill="#e9f8e3" stroke="#e9f8e3"/><path d="M280.29908501543105,101.71322084963322L243.68449416942894,205.79631065949798L406.69718706049025,207.10933095775545Z" fill="#e0f6da" stroke="#e0f6da"/><path d="M280.29908501543105,101.71322084963322L406.69718706049025,207.10933095775545L393.7276911456138,112.17537517659366Z" fill="#dff4da" stroke="#dff4da"/><path d="M393.7276911456138,112.17537517659366L406.69718706049025,207.10933095775545L535.1810983009636,119.10768561065197Z" fill="#d6f1d6" stroke="#d6f1d6"/><path d="M535.1810983009636,119.10768561065197L406.69718706049025,207.10933095775545L471.25358135439456,239.10961515270174Z" fill="#ccf0cf" stroke="#ccf0cf"/><path d="M535.1810983009636,119.10768561065197L471.25358135439456,239.10961515270174L544.0821612998843,319.43074990063906Z" fill="#bdeeca" stroke="#bdeeca"/><path d="M535.1810983009636,119.10768561065197L544.0821612998843,319.43074990063906L708.9427129458636,284.3488881457597Z" fill="#afeacc" stroke="#afeacc"/><path d="M535.1810983009636,119.10768561065197L708.9427129458636,284.3488881457597L633.5170118976384,40.36166355013847Z" fill="#bfe8d8" stroke="#bfe8d8"/><path d="M633.5170118976384,40.36166355013847L708.9427129458636,284.3488881457597L812.8320224862546,91.49146609939635Z" fill="#b3e2dd" stroke="#b3e2dd"/><path d="M812.8320224862546,91.49146609939635L708.9427129458636,284.3488881457597L797.8907201718539,273.79531698301435Z" fill="#9dded7" stroke="#9dded7"/><path d="M812.8320224862546,91.49146609939635L797.8907201718539,273.79531698301435L958.8820265885442,213.428957099095Z" fill="#99d8db" stroke="#99d8db"/><path d="M812.8320224862546,91.49146609939635L958.8820265885442,213.428957099095L1011.486864387989,31.333109820261598Z" fill="#9ccfe0" stroke="#9ccfe0"/><path d="M1011.486864387989,31.333109820261598L958.8820265885442,213.428957099095L1109.1230166424066,234.65804541483521Z" fill="#8ec3d4" stroke="#8ec3d4"/><path d="M1011.486864387989,31.333109820261598L1109.1230166424066,234.65804541483521L1095.6773581914604,21.62857278250158Z" fill="#8ebcd8" stroke="#8ebcd8"/><path d="M1095.6773581914604,21.62857278250158L1109.1230166424066,234.65804541483521L1222.5327018275857,250.40099683217704Z" fill="#81b2c8" stroke="#81b2c8"/><path d="M1095.6773581914604,21.62857278250158L1222.5327018275857,250.40099683217704L1333.8156986609101,16.818643268197775Z" fill="#7fa6ca" stroke="#7fa6ca"/><path d="M1333.8156986609101,16.818643268197775L1222.5327018275857,250.40099683217704L1416.1153742484748,171.96136350743473Z" fill="#7b96ba" stroke="#7b96ba"/><path d="M1333.8156986609101,16.818643268197775L1416.1153742484748,171.96136350743473L1420.507553173229,119.35055552981794Z" fill="#7e8bb8" stroke="#7e8bb8"/><path d="M1420.507553173229,119.35055552981794L1416.1153742484748,171.96136350743473L1469.903368614614,423.1357325334102Z" fill="#6784a5" stroke="#6784a5"/><path d="M-49.67035221867263,275.2092380449176L-76.3165070861578,517.7435587160289L-35.04098835401237,386.5896075870842Z" fill="#b5eff7" stroke="#b5eff7"/><path d="M-49.67035221867263,275.2092380449176L-35.04098835401237,386.5896075870842L67.57471594959497,350.2524300199002Z" fill="#c5f7ee" stroke="#c5f7ee"/><path d="M-49.67035221867263,275.2092380449176L67.57471594959497,350.2524300199002L120.05127377808094,189.70875176601112Z" fill="#d6fbe4" stroke="#d6fbe4"/><path d="M120.05127377808094,189.70875176601112L67.57471594959497,350.2524300199002L243.68449416942894,205.79631065949798Z" fill="#d6fadb" stroke="#d6fadb"/><path d="M243.68449416942894,205.79631065949798L67.57471594959497,350.2524300199002L243.37529953569174,419.3458079639822Z" fill="#bbf3e1" stroke="#bbf3e1"/><path d="M243.68449416942894,205.79631065949798L243.37529953569174,419.3458079639822L427.5803915038705,338.30406876280904Z" fill="#b6f1d8" stroke="#b6f1d8"/><path d="M243.68449416942894,205.79631065949798L427.5803915038705,338.30406876280904L406.69718706049025,207.10933095775545Z" fill="#c8f4ce" stroke="#c8f4ce"/><path d="M406.69718706049025,207.10933095775545L427.5803915038705,338.30406876280904L471.25358135439456,239.10961515270174Z" fill="#bcf0cb" stroke="#bcf0cb"/><path d="M471.25358135439456,239.10961515270174L427.5803915038705,338.30406876280904L544.0821612998843,319.43074990063906Z" fill="#abeccd" stroke="#abeccd"/><path d="M708.9427129458636,284.3488881457597L544.0821612998843,319.43074990063906L697.4210822582245,378.60714317299426Z" fill="#8ce1d6" stroke="#8ce1d6"/><path d="M708.9427129458636,284.3488881457597L697.4210822582245,378.60714317299426L797.8907201718539,273.79531698301435Z" fill="#86ddd7" stroke="#86ddd7"/><path d="M797.8907201718539,273.79531698301435L697.4210822582245,378.60714317299426L872.0758914481848,327.2653841972351Z" fill="#7ad8dc" stroke="#7ad8dc"/><path d="M797.8907201718539,273.79531698301435L872.0758914481848,327.2653841972351L958.8820265885442,213.428957099095Z" fill="#81d4d6" stroke="#81d4d6"/><path d="M958.8820265885442,213.428957099095L872.0758914481848,327.2653841972351L1031.6685679368675,353.0461791716516Z" fill="#71c9d4" stroke="#71c9d4"/><path d="M958.8820265885442,213.428957099095L1031.6685679368675,353.0461791716516L1109.1230166424066,234.65804541483521Z" fill="#72c1cb" stroke="#72c1cb"/><path d="M1109.1230166424066,234.65804541483521L1031.6685679368675,353.0461791716516L1140.244552809745,366.3174554798752Z" fill="#5cb4cb" stroke="#5cb4cb"/><path d="M1109.1230166424066,234.65804541483521L1140.244552809745,366.3174554798752L1222.5327018275857,250.40099683217704Z" fill="#60adc1" stroke="#60adc1"/><path d="M1222.5327018275857,250.40099683217704L1140.244552809745,366.3174554798752L1283.7115531414747,416.31756763905287Z" fill="#479ec2" stroke="#479ec2"/><path d="M1222.5327018275857,250.40099683217704L1283.7115531414747,416.31756763905287L1416.1153742484748,171.96136350743473Z" fill="#5b96b2" stroke="#5b96b2"/><path d="M1416.1153742484748,171.96136350743473L1283.7115531414747,416.31756763905287L1469.903368614614,423.1357325334102Z" fill="#4985b1" stroke="#4985b1"/><path d="M-35.04098835401237,386.5896075870842L-76.3165070861578,517.7435587160289L116.99572001583874,573.6740384157747Z" fill="#97d4eb" stroke="#97d4eb"/><path d="M-35.04098835401237,386.5896075870842L116.99572001583874,573.6740384157747L67.57471594959497,350.2524300199002Z" fill="#a2e2f0" stroke="#a2e2f0"/><path d="M67.57471594959497,350.2524300199002L116.99572001583874,573.6740384157747L208.97556063719094,517.1049995720387Z" fill="#91d4e5" stroke="#91d4e5"/><path d="M67.57471594959497,350.2524300199002L208.97556063719094,517.1049995720387L243.37529953569174,419.3458079639822Z" fill="#9be1e9" stroke="#9be1e9"/><path d="M243.37529953569174,419.3458079639822L208.97556063719094,517.1049995720387L411.09263034537435,576.6326767019928Z" fill="#82c9d6" stroke="#82c9d6"/><path d="M243.37529953569174,419.3458079639822L411.09263034537435,576.6326767019928L427.5803915038705,338.30406876280904Z" fill="#8bd8dc" stroke="#8bd8dc"/><path d="M427.5803915038705,338.30406876280904L411.09263034537435,576.6326767019928L577.8388494160026,498.2867014501244Z" fill="#79ccd2" stroke="#79ccd2"/><path d="M427.5803915038705,338.30406876280904L577.8388494160026,498.2867014501244L544.0821612998843,319.43074990063906Z" fill="#8bded6" stroke="#8bded6"/><path d="M544.0821612998843,319.43074990063906L577.8388494160026,498.2867014501244L697.4210822582245,378.60714317299426Z" fill="#7bd8db" stroke="#7bd8db"/><path d="M697.4210822582245,378.60714317299426L577.8388494160026,498.2867014501244L653.0105485394597,577.0261169783771Z" fill="#5fc0d5" stroke="#5fc0d5"/><path d="M697.4210822582245,378.60714317299426L653.0105485394597,577.0261169783771L879.8524362500757,540.6876118853688Z" fill="#4fb5d7" stroke="#4fb5d7"/><path d="M697.4210822582245,378.60714317299426L879.8524362500757,540.6876118853688L872.0758914481848,327.2653841972351Z" fill="#5ac6e7" stroke="#5ac6e7"/><path d="M872.0758914481848,327.2653841972351L879.8524362500757,540.6876118853688L1031.6685679368675,353.0461791716516Z" fill="#50bce1" stroke="#50bce1"/><path d="M1031.6685679368675,353.0461791716516L879.8524362500757,540.6876118853688L936.816257731989,573.6194798536599Z" fill="#39a4d6" stroke="#39a4d6"/><path d="M1031.6685679368675,353.0461791716516L936.816257731989,573.6194798536599L1176.4987024571747,571.2704069260508Z" fill="#2b95cd" stroke="#2b95cd"/><path d="M1031.6685679368675,353.0461791716516L1176.4987024571747,571.2704069260508L1140.244552809745,366.3174554798752Z" fill="#369dd1" stroke="#369dd1"/><path d="M1140.244552809745,366.3174554798752L1176.4987024571747,571.2704069260508L1234.3194422777742,551.0520048905164Z" fill="#1e80c1" stroke="#1e80c1"/><path d="M1140.244552809745,366.3174554798752L1234.3194422777742,551.0520048905164L1283.7115531414747,416.31756763905287Z" fill="#2889c6" stroke="#2889c6"/><path d="M1283.7115531414747,416.31756763905287L1234.3194422777742,551.0520048905164L1379.2980930022895,501.3317137118429Z" fill="#1c70b7" stroke="#1c70b7"/><path d="M1283.7115531414747,416.31756763905287L1379.2980930022895,501.3317137118429L1469.903368614614,423.1357325334102Z" fill="#2770b6" stroke="#2770b6"/><path d="M1469.903368614614,423.1357325334102L1379.2980930022895,501.3317137118429L1428.3359287586063,734.5210963860154Z" fill="#15469d" stroke="#15469d"/><path d="M-76.3165070861578,517.7435587160289L-127.22170284949243,847.9845260549337L-61.95835176855326,670.1038836780936Z" fill="#8891c6" stroke="#8891c6"/><path d="M-76.3165070861578,517.7435587160289L-61.95835176855326,670.1038836780936L116.99572001583874,573.6740384157747Z" fill="#8db1d6" stroke="#8db1d6"/><path d="M116.99572001583874,573.6740384157747L-61.95835176855326,670.1038836780936L75.88268416933715,702.8672638256103Z" fill="#8499c4" stroke="#8499c4"/><path d="M116.99572001583874,573.6740384157747L75.88268416933715,702.8672638256103L180.53805540315807,682.2517966199666Z" fill="#7e95be" stroke="#7e95be"/><path d="M116.99572001583874,573.6740384157747L180.53805540315807,682.2517966199666L208.97556063719094,517.1049995720387Z" fill="#81acca" stroke="#81acca"/><path d="M208.97556063719094,517.1049995720387L180.53805540315807,682.2517966199666L374.38191348686814,634.7984154615551Z" fill="#7aa2c0" stroke="#7aa2c0"/><path d="M208.97556063719094,517.1049995720387L374.38191348686814,634.7984154615551L411.09263034537435,576.6326767019928Z" fill="#79adc3" stroke="#79adc3"/><path d="M411.09263034537435,576.6326767019928L374.38191348686814,634.7984154615551L547.7980467304587,643.7013534922153Z" fill="#6999b4" stroke="#6999b4"/><path d="M411.09263034537435,576.6326767019928L547.7980467304587,643.7013534922153L577.8388494160026,498.2867014501244Z" fill="#66a7bc" stroke="#66a7bc"/><path d="M577.8388494160026,498.2867014501244L547.7980467304587,643.7013534922153L653.0105485394597,577.0261169783771Z" fill="#5ba3bf" stroke="#5ba3bf"/><path d="M653.0105485394597,577.0261169783771L547.7980467304587,643.7013534922153L657.8984771948308,672.9204176925123Z" fill="#528cb3" stroke="#528cb3"/><path d="M653.0105485394597,577.0261169783771L657.8984771948308,672.9204176925123L832.9938717372715,616.6774450242519Z" fill="#4689b9" stroke="#4689b9"/><path d="M653.0105485394597,577.0261169783771L832.9938717372715,616.6774450242519L879.8524362500757,540.6876118853688Z" fill="#4194c7" stroke="#4194c7"/><path d="M879.8524362500757,540.6876118853688L832.9938717372715,616.6774450242519L936.816257731989,573.6194798536599Z" fill="#358cc7" stroke="#358cc7"/><path d="M936.816257731989,573.6194798536599L832.9938717372715,616.6774450242519L934.454614603892,715.3054845426232Z" fill="#2e75b8" stroke="#2e75b8"/><path d="M936.816257731989,573.6194798536599L934.454614603892,715.3054845426232L1172.670322302729,686.8852519243956Z" fill="#205eab" stroke="#205eab"/><path d="M936.816257731989,573.6194798536599L1172.670322302729,686.8852519243956L1176.4987024571747,571.2704069260508Z" fill="#1c64af" stroke="#1c64af"/><path d="M1176.4987024571747,571.2704069260508L1172.670322302729,686.8852519243956L1304.936984097585,619.2887960281223Z" fill="#0e4ba0" stroke="#0e4ba0"/><path d="M1176.4987024571747,571.2704069260508L1304.936984097585,619.2887960281223L1234.3194422777742,551.0520048905164Z" fill="#1259a8" stroke="#1259a8"/><path d="M1234.3194422777742,551.0520048905164L1304.936984097585,619.2887960281223L1379.2980930022895,501.3317137118429Z" fill="#1457a7" stroke="#1457a7"/><path d="M1379.2980930022895,501.3317137118429L1304.936984097585,619.2887960281223L1428.3359287586063,734.5210963860154Z" fill="#0e3693" stroke="#0e3693"/><path d="M-61.95835176855326,670.1038836780936L-127.22170284949243,847.9845260549337L47.81278666108847,797.2046551946551Z" fill="#7f80ad" stroke="#7f80ad"/><path d="M-61.95835176855326,670.1038836780936L47.81278666108847,797.2046551946551L75.88268416933715,702.8672638256103Z" fill="#7e7eb4" stroke="#7e7eb4"/><path d="M75.88268416933715,702.8672638256103L47.81278666108847,797.2046551946551L180.53805540315807,682.2517966199666Z" fill="#787cae" stroke="#787cae"/><path d="M180.53805540315807,682.2517966199666L47.81278666108847,797.2046551946551L262.7829406131059,863.0033645220101Z" fill="#717a9e" stroke="#717a9e"/><path d="M180.53805540315807,682.2517966199666L262.7829406131059,863.0033645220101L374.38191348686814,634.7984154615551Z" fill="#6e77a3" stroke="#6e77a3"/><path d="M374.38191348686814,634.7984154615551L262.7829406131059,863.0033645220101L432.7141210902482,837.5793591141701Z" fill="#647592" stroke="#647592"/><path d="M374.38191348686814,634.7984154615551L432.7141210902482,837.5793591141701L547.7980467304587,643.7013534922153Z" fill="#60789f" stroke="#60789f"/><path d="M547.7980467304587,643.7013534922153L432.7141210902482,837.5793591141701L502.98726291395724,851.6707693599164Z" fill="#556f8c" stroke="#556f8c"/><path d="M547.7980467304587,643.7013534922153L502.98726291395724,851.6707693599164L633.1380349863321,791.6837125271559Z" fill="#4d6c91" stroke="#4d6c91"/><path d="M547.7980467304587,643.7013534922153L633.1380349863321,791.6837125271559L657.8984771948308,672.9204176925123Z" fill="#4c71a2" stroke="#4c71a2"/><path d="M657.8984771948308,672.9204176925123L633.1380349863321,791.6837125271559L768.7751847971231,774.0227460488677Z" fill="#3e659b" stroke="#3e659b"/><path d="M657.8984771948308,672.9204176925123L768.7751847971231,774.0227460488677L832.9938717372715,616.6774450242519Z" fill="#3b6eab" stroke="#3b6eab"/><path d="M832.9938717372715,616.6774450242519L768.7751847971231,774.0227460488677L934.454614603892,715.3054845426232Z" fill="#2d62ac" stroke="#2d62ac"/><path d="M934.454614603892,715.3054845426232L768.7751847971231,774.0227460488677L975.6024625897408,829.0612167399377Z" fill="#225499" stroke="#225499"/><path d="M934.454614603892,715.3054845426232L975.6024625897408,829.0612167399377L1172.670322302729,686.8852519243956Z" fill="#164496" stroke="#164496"/><path d="M1172.670322302729,686.8852519243956L975.6024625897408,829.0612167399377L1073.525370983407,862.4047503434122Z" fill="#0f3d86" stroke="#0f3d86"/><path d="M1172.670322302729,686.8852519243956L1073.525370983407,862.4047503434122L1312.6074586249888,831.6037642210722Z" fill="#042b7c" stroke="#042b7c"/><path d="M1172.670322302729,686.8852519243956L1312.6074586249888,831.6037642210722L1304.936984097585,619.2887960281223Z" fill="#052487" stroke="#052487"/><path d="M1304.936984097585,619.2887960281223L1312.6074586249888,831.6037642210722L1428.3359287586063,734.5210963860154Z" fill="#04127b" stroke="#04127b"/><path d="M1428.3359287586063,734.5210963860154L1312.6074586249888,831.6037642210722L1400.0338309630752,878.5795074049383Z" fill="#000d64" stroke="#000d64"/><path d="M-127.22170284949243,847.9845260549337L262.7829406131059,863.0033645220101L47.81278666108847,797.2046551946551Z" fill="#787d97" stroke="#787d97"/><path d="M262.7829406131059,863.0033645220101L1400.0338309630752,878.5795074049383L1073.525370983407,862.4047503434122Z" fill="#205281" stroke="#205281"/><path d="M262.7829406131059,863.0033645220101L1073.525370983407,862.4047503434122L502.98726291395724,851.6707693599164Z" fill="#46697d" stroke="#46697d"/><path d="M262.7829406131059,863.0033645220101L502.98726291395724,851.6707693599164L432.7141210902482,837.5793591141701Z" fill="#60737f" stroke="#60737f"/><path d="M502.98726291395724,851.6707693599164L1073.525370983407,862.4047503434122L975.6024625897408,829.0612167399377Z" fill="#265989" stroke="#265989"/><path d="M502.98726291395724,851.6707693599164L975.6024625897408,829.0612167399377L633.1380349863321,791.6837125271559Z" fill="#3a6489" stroke="#3a6489"/><path d="M633.1380349863321,791.6837125271559L975.6024625897408,829.0612167399377L768.7751847971231,774.0227460488677Z" fill="#2e5e93" stroke="#2e5e93"/><path d="M1073.525370983407,862.4047503434122L1400.0338309630752,878.5795074049383L1312.6074586249888,831.6037642210722Z" fill="#002065" stroke="#002065"/></g><filter id="noise"><feTurbulence type="fractalNoise" in="fillPaint" fill="#F00" baseFrequency="0.7" numOctaves="10" stitchTiles="stitch"/><feComponentTransfer><feFuncR type="linear" slope="2" intercept="-.5"/><feFuncG type="linear" slope="2" intercept="-.5"/><feFuncB type="linear" slope="2" intercept="-.5"/></feComponentTransfer><feColorMatrix type="matrix" values="0.3333 0.3333 0.3333 0 0 
 0.3333 0.3333 0.3333 0 0 
 0.3333 0.3333 0.3333 0 0 
 0 0 0 1 0"/></filter><rect opacity="0.3" width="100%" height="100%" filter="url(#noise)"/></svg>